<mxfile host="app.diagrams.net" modified="2021-01-12T05:39:23.699Z" agent="5.0 (X11; Linux x86_64) AppleWebKit/537.36 (KHTML, like Gecko) Chrome/86.0.4240.198 Safari/537.36" etag="KF2muKqeIU0yNSOpkRMO" version="14.1.9" type="github">
  <diagram id="NoUx66-SbGA2ksaStOsI" name="Halaman-1">
    <mxGraphModel dx="868" dy="458" grid="1" gridSize="10" guides="1" tooltips="1" connect="1" arrows="1" fold="1" page="1" pageScale="1" pageWidth="827" pageHeight="1169" math="0" shadow="0">
      <root>
        <mxCell id="0" />
        <mxCell id="1" parent="0" />
        <mxCell id="qv8Weyhg2b3P6LnXBMLB-3" value="" style="edgeStyle=none;rounded=1;sketch=0;orthogonalLoop=1;jettySize=auto;html=1;" edge="1" parent="1" source="qv8Weyhg2b3P6LnXBMLB-1" target="qv8Weyhg2b3P6LnXBMLB-2">
          <mxGeometry relative="1" as="geometry" />
        </mxCell>
        <mxCell id="qv8Weyhg2b3P6LnXBMLB-1" value="Mulai" style="strokeWidth=2;html=1;shape=mxgraph.flowchart.start_1;whiteSpace=wrap;rounded=0;sketch=0;" vertex="1" parent="1">
          <mxGeometry x="350" y="110" width="100" height="60" as="geometry" />
        </mxCell>
        <mxCell id="qv8Weyhg2b3P6LnXBMLB-5" value="" style="edgeStyle=none;rounded=1;sketch=0;orthogonalLoop=1;jettySize=auto;html=1;" edge="1" parent="1" source="qv8Weyhg2b3P6LnXBMLB-2">
          <mxGeometry relative="1" as="geometry">
            <mxPoint x="400" y="320" as="targetPoint" />
          </mxGeometry>
        </mxCell>
        <mxCell id="qv8Weyhg2b3P6LnXBMLB-2" value="Masukan nilai A" style="shape=parallelogram;perimeter=parallelogramPerimeter;whiteSpace=wrap;html=1;fixedSize=1;rounded=0;strokeWidth=2;sketch=0;" vertex="1" parent="1">
          <mxGeometry x="315" y="210" width="170" height="60" as="geometry" />
        </mxCell>
        <mxCell id="qv8Weyhg2b3P6LnXBMLB-8" value="" style="edgeStyle=none;rounded=1;sketch=0;orthogonalLoop=1;jettySize=auto;html=1;" edge="1" parent="1" target="qv8Weyhg2b3P6LnXBMLB-7">
          <mxGeometry relative="1" as="geometry">
            <mxPoint x="398" y="382" as="sourcePoint" />
          </mxGeometry>
        </mxCell>
        <mxCell id="qv8Weyhg2b3P6LnXBMLB-6" value="Masukan nilai B" style="shape=parallelogram;perimeter=parallelogramPerimeter;whiteSpace=wrap;html=1;fixedSize=1;rounded=0;strokeWidth=2;sketch=0;" vertex="1" parent="1">
          <mxGeometry x="310" y="320" width="170" height="60" as="geometry" />
        </mxCell>
        <mxCell id="qv8Weyhg2b3P6LnXBMLB-10" value="" style="edgeStyle=none;rounded=1;sketch=0;orthogonalLoop=1;jettySize=auto;html=1;" edge="1" parent="1" source="qv8Weyhg2b3P6LnXBMLB-7">
          <mxGeometry relative="1" as="geometry">
            <mxPoint x="560" y="540" as="targetPoint" />
            <Array as="points">
              <mxPoint x="560" y="480" />
            </Array>
          </mxGeometry>
        </mxCell>
        <mxCell id="qv8Weyhg2b3P6LnXBMLB-7" value="A &amp;lt; B" style="rhombus;whiteSpace=wrap;html=1;rounded=0;strokeWidth=2;sketch=0;" vertex="1" parent="1">
          <mxGeometry x="315" y="440" width="170" height="80" as="geometry" />
        </mxCell>
        <mxCell id="qv8Weyhg2b3P6LnXBMLB-11" value="" style="edgeStyle=none;rounded=1;sketch=0;orthogonalLoop=1;jettySize=auto;html=1;" edge="1" parent="1">
          <mxGeometry relative="1" as="geometry">
            <mxPoint x="310" y="480" as="sourcePoint" />
            <mxPoint x="240" y="540" as="targetPoint" />
            <Array as="points">
              <mxPoint x="240" y="480" />
            </Array>
          </mxGeometry>
        </mxCell>
        <mxCell id="qv8Weyhg2b3P6LnXBMLB-12" value="Yes" style="text;html=1;strokeColor=none;fillColor=none;align=center;verticalAlign=middle;whiteSpace=wrap;rounded=0;sketch=0;" vertex="1" parent="1">
          <mxGeometry x="260" y="450" width="40" height="20" as="geometry" />
        </mxCell>
        <mxCell id="qv8Weyhg2b3P6LnXBMLB-13" value="No" style="text;html=1;strokeColor=none;fillColor=none;align=center;verticalAlign=middle;whiteSpace=wrap;rounded=0;sketch=0;" vertex="1" parent="1">
          <mxGeometry x="500" y="450" width="40" height="20" as="geometry" />
        </mxCell>
        <mxCell id="qv8Weyhg2b3P6LnXBMLB-14" value="B terbesar" style="shape=parallelogram;perimeter=parallelogramPerimeter;whiteSpace=wrap;html=1;fixedSize=1;rounded=0;strokeWidth=2;sketch=0;" vertex="1" parent="1">
          <mxGeometry x="160" y="540" width="170" height="60" as="geometry" />
        </mxCell>
        <mxCell id="qv8Weyhg2b3P6LnXBMLB-15" value="A terbesar" style="shape=parallelogram;perimeter=parallelogramPerimeter;whiteSpace=wrap;html=1;fixedSize=1;rounded=0;strokeWidth=2;sketch=0;" vertex="1" parent="1">
          <mxGeometry x="470" y="540" width="170" height="60" as="geometry" />
        </mxCell>
        <mxCell id="qv8Weyhg2b3P6LnXBMLB-16" value="" style="strokeWidth=2;html=1;shape=mxgraph.flowchart.annotation_2;align=left;labelPosition=right;pointerEvents=1;rounded=0;sketch=0;rotation=-90;" vertex="1" parent="1">
          <mxGeometry x="340" y="505" width="120" height="320" as="geometry" />
        </mxCell>
        <mxCell id="qv8Weyhg2b3P6LnXBMLB-17" value="Selesai" style="strokeWidth=2;html=1;shape=mxgraph.flowchart.start_1;whiteSpace=wrap;rounded=0;sketch=0;" vertex="1" parent="1">
          <mxGeometry x="350" y="720" width="100" height="60" as="geometry" />
        </mxCell>
      </root>
    </mxGraphModel>
  </diagram>
</mxfile>
